<?xml version="1.0" standalone="no"?>
<!DOCTYPE svg PUBLIC "-//W3C//DTD SVG 20010904//EN"
 "http://www.w3.org/TR/2001/REC-SVG-20010904/DTD/svg10.dtd">
<svg version="1.0" xmlns="http://www.w3.org/2000/svg"
 width="704.000000pt" height="704.000000pt" viewBox="0 0 704.000000 704.000000"
 preserveAspectRatio="xMidYMid meet">
<metadata>
Created by potrace 1.14, written by Peter Selinger 2001-2017
</metadata>
<g transform="translate(0.000000,704.000000) scale(0.100000,-0.100000)"
fill="#000000" stroke="none">
<path d="M4046 6803 c-1 -1 -308 -3 -682 -4 l-681 -1 1 -917 1 -917 -85 49
c-47 27 -103 59 -125 72 -63 35 -297 170 -440 253 -71 41 -155 89 -185 105
-30 17 -83 48 -118 69 -34 21 -64 38 -66 38 -3 0 -50 27 -106 60 -56 33 -106
60 -111 60 -5 0 -9 5 -9 10 0 6 -5 10 -11 10 -6 0 -53 25 -105 55 -52 31 -120
70 -152 87 -31 17 -62 35 -68 39 -6 5 -57 -73 -140 -218 -71 -124 -141 -247
-156 -272 -15 -25 -33 -57 -41 -71 -7 -14 -59 -104 -114 -200 -55 -96 -110
-191 -120 -210 -11 -19 -76 -132 -145 -251 -121 -210 -124 -217 -104 -229 12
-8 111 -65 221 -128 272 -156 367 -211 385 -222 8 -6 22 -13 30 -17 8 -4 43
-24 78 -45 34 -21 64 -38 66 -38 2 0 43 -23 92 -51 274 -159 392 -226 405
-232 8 -4 28 -16 44 -27 17 -11 37 -23 45 -27 8 -3 57 -31 108 -61 83 -48 91
-55 75 -66 -10 -7 -99 -59 -198 -115 -99 -57 -192 -112 -207 -122 -15 -11 -29
-19 -31 -19 -3 0 -83 -46 -178 -101 -277 -162 -550 -319 -599 -347 -25 -13
-52 -31 -61 -38 -8 -8 -18 -14 -22 -14 -8 0 -267 -151 -267 -155 0 -2 63 -113
141 -247 77 -134 156 -270 176 -303 19 -33 38 -67 43 -75 5 -8 34 -58 64 -110
223 -388 406 -695 414 -698 5 -1 45 18 88 44 43 26 99 58 124 72 25 14 57 32
72 41 767 447 1293 748 1298 742 3 -5 5 -417 5 -915 l0 -906 835 2 834 3 -2
916 -2 917 282 -162 c156 -89 362 -208 458 -263 96 -55 191 -110 210 -121 158
-89 572 -329 602 -348 20 -13 39 -20 41 -16 18 30 399 695 414 722 11 19 71
123 133 230 62 107 125 218 141 245 15 28 52 93 83 145 l56 95 -23 18 c-12 10
-44 29 -70 43 -27 14 -77 43 -113 64 -35 22 -66 40 -69 40 -3 0 -33 17 -67 38
-35 21 -88 52 -118 69 -30 17 -221 126 -425 243 -203 117 -395 227 -425 243
-30 16 -62 35 -70 41 -8 6 -24 16 -35 22 -154 84 -168 94 -154 110 6 7 20 16
32 20 11 3 43 21 71 39 28 17 71 43 96 57 67 37 819 474 910 528 25 15 134 78
244 141 109 63 200 119 203 125 2 7 -83 162 -190 345 -106 184 -238 411 -292
504 -54 94 -112 195 -130 225 -54 91 -130 221 -174 297 l-41 72 -53 -31 c-28
-17 -110 -64 -182 -106 -460 -267 -609 -352 -617 -352 -4 0 -8 -4 -8 -10 0 -5
-4 -10 -8 -10 -5 0 -168 -92 -361 -205 -194 -113 -354 -205 -355 -205 -2 0 -4
410 -5 912 -1 502 -4 914 -7 917 -4 4 -293 8 -298 4z"/>
</g>
</svg>
